<svg width="90" height="90" viewBox="0 0 90 90" fill="none" xmlns="http://www.w3.org/2000/svg">
<path d="M73.5797 59.1845C71.3806 59.1845 69.2914 60.0458 67.7154 61.6036C66.1393 63.1796 65.2596 65.2322 65.2596 67.4313C65.2596 69.6305 66.121 71.683 67.7154 73.259C69.3097 74.8168 71.3806 75.6781 73.5797 75.6781C78.088 75.6781 81.7532 71.9762 81.7532 67.4313C81.7532 62.8864 78.088 59.1845 73.5797 59.1845ZM73.5797 72.0129C71.0507 72.0129 68.9249 69.9237 68.9249 67.4313C68.9249 64.9389 71.0507 62.8498 73.5797 62.8498C76.0721 62.8498 78.088 64.9023 78.088 67.4313C78.088 69.9603 76.0721 72.0129 73.5797 72.0129Z" fill="#56423C"/>
<path d="M75.7056 31.7135C75.3757 31.4019 74.9359 31.237 74.4777 31.237H65.0764C64.0685 31.237 63.2438 32.0617 63.2438 33.0696V48.0971C63.2438 49.1051 64.0685 49.9297 65.0764 49.9297H79.9939C81.0019 49.9297 81.8265 49.1051 81.8265 48.0971V38.036C81.8265 37.5229 81.6066 37.0281 81.2218 36.6799L75.7056 31.7135ZM78.1613 46.2645H66.909V34.8839H73.763L78.1613 38.8424V46.2645Z" fill="#56423C"/>
<path d="M28.8271 59.1845C26.6279 59.1845 24.5387 60.0458 22.9627 61.6036C21.3866 63.1796 20.507 65.2322 20.507 67.4313C20.507 69.6305 21.3683 71.683 22.9627 73.259C24.557 74.8168 26.6279 75.6781 28.8271 75.6781C33.3353 75.6781 37.0005 71.9762 37.0005 67.4313C37.0005 62.8864 33.3353 59.1845 28.8271 59.1845ZM28.8271 72.0129C26.298 72.0129 24.1722 69.9237 24.1722 67.4313C24.1722 64.9389 26.298 62.8498 28.8271 62.8498C31.3194 62.8498 33.3353 64.9023 33.3353 67.4313C33.3353 69.9603 31.3194 72.0129 28.8271 72.0129Z" fill="#56423C"/>
<path d="M16.6036 61.4386H12.92V56.5639C12.92 55.5559 12.0953 54.7312 11.0874 54.7312C10.0794 54.7312 9.25476 55.5559 9.25476 56.5639V63.2712C9.25476 64.2792 10.0794 65.1039 11.0874 65.1039H16.6036C17.6115 65.1039 18.4362 64.2792 18.4362 63.2712C18.4362 62.2633 17.6115 61.4386 16.6036 61.4386Z" fill="#56423C"/>
<path d="M25.8949 51.4508C25.8949 50.4429 25.0703 49.6182 24.0623 49.6182H1.83262C0.824679 49.6182 0 50.4429 0 51.4508C0 52.4588 0.824679 53.2834 1.83262 53.2834H24.0623C25.0703 53.2834 25.8949 52.4771 25.8949 51.4508Z" fill="#56423C"/>
<path d="M5.55288 44.8351L27.7826 44.9634C28.7905 44.9634 29.6152 44.157 29.6335 43.1491C29.6518 42.1228 28.8272 41.2981 27.8192 41.2981L5.58953 41.1698C5.5712 41.1698 5.5712 41.1698 5.5712 41.1698C4.56326 41.1698 3.73858 41.9762 3.73858 42.9841C3.72025 44.0104 4.54493 44.8351 5.55288 44.8351Z" fill="#56423C"/>
<path d="M9.29148 36.515H31.5212C32.5291 36.515 33.3538 35.6903 33.3538 34.6823C33.3538 33.6744 32.5291 32.8497 31.5212 32.8497H9.29148C8.28354 32.8497 7.45886 33.6744 7.45886 34.6823C7.45886 35.6903 8.28354 36.515 9.29148 36.515Z" fill="#56423C"/>
<path d="M89.322 34.0409L76.2004 23.1735C75.8705 22.8986 75.4673 22.752 75.0275 22.752H59.5969V16.1546C59.5969 15.1466 58.7722 14.3219 57.7642 14.3219H11.0874C10.0794 14.3219 9.25476 15.1466 9.25476 16.1546V29.5693C9.25476 30.5773 10.0794 31.402 11.0874 31.402C12.0953 31.402 12.92 30.5773 12.92 29.5693V17.9872H55.9499V61.4386H40.9224C39.9145 61.4386 39.0898 62.2633 39.0898 63.2712C39.0898 64.2792 39.9145 65.1038 40.9224 65.1038H63.2987C64.3067 65.1038 65.1314 64.2792 65.1314 63.2712C65.1314 62.2633 64.3067 61.4386 63.2987 61.4386H59.6152V26.4172H74.3861L86.3348 36.3134L86.2065 61.4019H84.3006C83.2926 61.4019 82.468 62.2266 82.468 63.2346C82.468 64.2425 83.2926 65.0672 84.3006 65.0672H88.0208C89.0287 65.0672 89.8534 64.2608 89.8534 63.2529L90 35.4704C89.9817 34.9206 89.7435 34.3891 89.322 34.0409Z" fill="#56423C"/>
</svg>
