<svg width="85" height="85" viewBox="0 0 85 85" fill="none" xmlns="http://www.w3.org/2000/svg">
<path d="M78.6249 42.5996C78.6249 26.1143 67.4853 11.7373 51.5146 7.63671C49.9872 7.23828 48.4267 8.16796 48.0449 9.69531C47.6464 11.2227 48.5761 12.7832 50.1034 13.165C63.5341 16.6016 72.914 28.7207 72.914 42.5996C72.914 54.8349 65.6259 65.6758 54.7187 70.4404L57.3583 64.2978C57.9726 62.8535 57.3085 61.1768 55.8642 60.5459C54.4199 59.9316 52.7431 60.5957 52.1122 62.04L46.9658 74.0264C46.3515 75.4707 47.0156 77.1474 48.4599 77.7783L60.4462 82.9248C62.2392 83.5556 63.7333 82.5098 64.1982 81.4306C64.8124 79.9863 64.1484 78.3096 62.704 77.6787L57.4911 75.4375C70.1913 69.6933 78.6249 56.9434 78.6249 42.5996Z" fill="#56423C"/>
<path d="M34.9297 72.0342C21.499 68.581 12.1191 56.4785 12.1191 42.5996C12.1191 30.5303 19.208 19.8223 29.8662 14.958L27.3926 20.7021C26.7783 22.1465 27.4092 23.8896 28.8867 24.4541C30.6133 25.1016 32.0742 24.3213 32.6387 22.96L37.7852 10.957C38.2832 9.79492 38.2666 8.05175 36.291 7.20507L24.3047 2.05859C22.8604 1.44433 21.1836 2.10839 20.5527 3.55273C19.9385 4.99706 20.6025 6.67382 22.0469 7.30468L27.625 9.69531C14.875 15.456 6.4082 28.2226 6.4082 42.5996C6.4082 59.0849 17.5645 73.4453 33.5186 77.5625C35.4443 78.0605 36.6563 76.7988 36.9883 75.5039C37.3701 73.9765 36.457 72.4326 34.9297 72.0342Z" fill="#56423C"/>
<path d="M49.2402 53.3574C50.7012 51.8301 51.4316 49.9043 51.4316 47.6133C51.4316 46.5674 51.249 45.6045 50.9004 44.708C50.5517 43.8115 50.0537 43.0478 49.4062 42.3838C48.7588 41.7363 47.9121 41.1885 46.8828 40.7236C46.3349 40.4912 45.2392 40.1592 43.5625 39.7441V30.2148C44.6416 30.4306 45.4883 30.8955 46.1191 31.5927C46.7334 32.29 47.1484 33.2861 47.3476 34.581L50.7676 34.0664C50.4687 31.9746 49.6055 30.3144 48.1611 29.1191C47.0322 28.1728 45.5049 27.6084 43.5791 27.4258V25.8486H41.6201V27.4258C39.4287 27.6416 37.7686 28.2558 36.6562 29.2353C34.9795 30.6963 34.1494 32.6054 34.1494 34.9629C34.1494 36.291 34.4316 37.4697 35.0127 38.5156C35.5771 39.5615 36.3906 40.375 37.4531 40.956C38.8809 41.7529 40.2754 42.2842 41.6367 42.5332V53.0752C40.3418 52.9424 39.2129 52.2783 38.2832 51.0996C37.6357 50.2695 37.1709 48.958 36.9219 47.1816L33.585 47.8125C33.7012 49.5224 34.1494 50.9834 34.8965 52.1787C35.6436 53.374 36.54 54.2373 37.5859 54.7685C38.6152 55.2998 39.9766 55.665 41.6201 55.8808V59.1846H43.5791V55.831C45.9033 55.7148 47.7959 54.8847 49.2402 53.3574ZM41.6367 39.3291C40.126 38.8808 39.0635 38.2666 38.4326 37.5029C37.8018 36.7392 37.4863 35.7929 37.4863 34.664C37.4863 33.5185 37.8516 32.539 38.5986 31.709C39.3457 30.8789 40.3584 30.3642 41.6367 30.165V39.3291ZM46.7666 51.3818C45.9199 52.3447 44.8574 52.8926 43.5791 53.0586V42.9814C45.3555 43.5625 46.5508 44.2099 47.1484 44.9404C47.7461 45.6709 48.0449 46.6338 48.0449 47.8457C48.0283 49.2402 47.6133 50.4355 46.7666 51.3818Z" fill="#56423C"/>
</svg>
