<svg width="85" height="85" viewBox="0 0 85 85" fill="none" xmlns="http://www.w3.org/2000/svg">
<g clip-path="url(#clip0_13_112)">
<path d="M80.75 70.55C72.2948 66.0662 65.8093 63.5521 60.0359 62.5882L60.6334 61.7668C60.9168 61.4834 61.0584 61.0584 60.9168 60.6334L59.5892 55.323C60.0703 54.6429 60.5242 53.9396 60.9493 53.2166C66.2286 51.4199 68.8983 48.3826 69.3469 43.9108C71.6658 43.7899 73.6666 41.7202 73.6666 39.3834V28.7584C73.6666 26.4322 71.816 24.3708 69.3917 24.2328C69.0798 16.0489 65.4713 0 42.5 0C19.5283 0 15.9201 16.0496 15.6081 24.2333C13.3083 24.3691 11.3334 26.3 11.3334 28.7582V39.3832C11.3334 41.7916 13.4584 43.9166 16.0084 43.9166H18.1334C18.9143 43.9166 19.6649 43.6922 20.3187 43.308C21.122 47.5721 22.8949 51.7662 25.411 55.3229L24.0834 60.6332C24.0834 60.9166 24.0834 61.3416 24.3668 61.7666L24.9643 62.5881C19.1909 63.5521 12.7053 66.0661 4.25017 70.5498C1.55839 71.825 0 74.5166 0 77.4916V83.5832C0 84.4334 0.566611 85 1.41661 85H35.4166H35.9832H49.0166H49.5832H83.5832C84.4332 85 84.9998 84.4334 84.9998 83.5834V77.4918C85 74.6584 83.3 71.9666 80.75 70.55ZM42.5078 67.3095L45.9 75.0834H39.0527L42.5078 67.3095ZM38.0234 77.9166H46.9711L47.8004 82.1666H37.1732L38.0234 77.9166ZM57.375 58.0834L57.9416 60.6334L56.4944 62.6204C56.4021 62.696 56.3167 62.7874 56.2416 62.9L50.3489 71.0592L48.4792 73.6264L44.66 65.0333C49.3181 64.4652 53.4662 62.0912 56.792 58.6895C56.9885 58.4913 57.1831 58.2899 57.375 58.0834ZM62.9068 49.2708C63.7058 47.3266 64.3081 45.3057 64.689 43.2687C65.2284 43.5954 65.8425 43.8137 66.5045 43.8877C66.259 45.8902 65.3693 47.7808 62.9068 49.2708ZM70.6916 28.6166V39.2416C70.6916 40.0916 69.9832 40.9416 68.9916 40.9416H66.8666C66.0166 40.9416 65.1666 40.2332 65.1666 39.2416V38.25V28.6166C65.1666 27.7666 65.875 26.9166 66.8666 26.9166H68.9916C69.8416 26.9166 70.6916 27.625 70.6916 28.6166ZM42.5 2.83339C51.2319 2.83339 65.9278 5.68388 66.5596 24.2481C65.966 24.309 65.3974 24.4895 64.8831 24.7667C63.1592 13.9788 53.7537 5.66661 42.5 5.66661C31.2478 5.66661 21.8433 13.9765 20.1176 24.7621C19.6109 24.4885 19.0451 24.3077 18.4402 24.2476C19.0724 5.68388 33.7682 2.83339 42.5 2.83339ZM19.6916 39.2416C19.6916 40.0916 18.9832 40.9416 17.9916 40.9416H15.8666C15.0166 40.9416 14.1666 40.2332 14.1666 39.2416V28.6166C14.1666 27.7666 14.875 26.9166 15.8666 26.9166H17.9916C18.8416 26.9166 19.6916 27.625 19.6916 28.6166V39.2416ZM22.6666 28.3334C22.6666 17.425 31.5916 8.5 42.5 8.5C53.4084 8.5 62.3334 17.425 62.3334 28.3334V38.25C62.3334 42.937 61.1132 47.228 59.1349 50.8484C55.7535 51.8292 50.8891 52.4166 43.9168 52.4166C43.0668 52.4166 42.5002 52.9832 42.5002 53.8332C42.5002 54.6832 43.0668 55.2498 43.9168 55.2498C49.0209 55.2498 53.2897 54.9364 56.7855 54.2811C56.6987 54.368 56.6118 54.4548 56.525 54.5416C55.8123 55.4919 55.0601 56.3583 54.2742 57.1396C50.9384 60.2472 46.9598 62.1297 43.1259 62.3161C42.933 62.2333 42.7167 62.1916 42.5 62.1916C42.2822 62.1916 42.086 62.2343 41.91 62.3179C39.5632 62.2104 37.1614 61.4665 34.8849 60.1941C32.5784 58.869 30.4088 56.9586 28.475 54.5416C28.3334 54.4 28.1916 54.2582 28.05 54.1166L27.9673 54.0891C24.7858 49.9164 22.6666 44.4271 22.6666 38.25V28.3334ZM40.3398 65.0333L36.5206 73.6264L34.6509 71.0592L28.7582 62.9C28.7131 62.8548 28.6633 62.8102 28.6115 62.7662L27.0582 60.6334L27.6248 58.0834C27.8166 58.2899 28.0112 58.4911 28.2074 58.6892C31.5333 62.0908 35.6817 64.465 40.3398 65.0333ZM2.83339 77.4916C2.83339 75.65 3.825 73.95 5.525 73.1C14.5551 68.3028 21.0554 65.8951 26.8461 65.1759L35.2999 76.8L34.2266 82.1666H2.83339V77.4916ZM82.1666 82.1666H50.7734L49.7001 76.8L58.2456 65.0499C64.0158 65.9207 70.6328 68.3266 79.4752 72.9582C81.1752 73.9498 82.1668 75.6498 82.1668 77.4916V82.1666H82.1666Z" fill="#56423C"/>
</g>
<defs>
<clipPath id="clip0_13_112">
<rect width="85" height="85" fill="white"/>
</clipPath>
</defs>
</svg>
