<svg width="85" height="85" viewBox="0 0 85 85" fill="none" xmlns="http://www.w3.org/2000/svg">
<path d="M78.4296 4.65753H6.57045C2.94755 4.65753 0 7.60509 0 11.228V53.8111C0 57.434 2.94755 60.3816 6.57045 60.3816H35.8464C36.5354 60.3816 37.0939 59.823 37.0939 59.134C37.0939 58.4451 36.5354 57.8865 35.8464 57.8865H6.57045C4.32336 57.8865 2.49511 56.0582 2.49511 53.8111V11.228C2.49511 8.98089 4.32336 7.15264 6.57045 7.15264H78.4296C80.6766 7.15264 82.5049 8.98089 82.5049 11.228V53.8111C82.5049 54.5001 83.0635 55.0587 83.7524 55.0587C84.4414 55.0587 85 54.5001 85 53.8111V11.228C85 7.60509 82.0525 4.65753 78.4296 4.65753Z" fill="#56423C"/>
<path d="M10.5627 51.0665H35.8465C36.5355 51.0665 37.0941 50.508 37.0941 49.819C37.0941 49.13 36.5355 48.5714 35.8465 48.5714H10.5627C9.87376 48.5714 9.31519 49.13 9.31519 49.819C9.31519 50.508 9.87376 51.0665 10.5627 51.0665Z" fill="#56423C"/>
<path d="M25.1175 25.8659V20.543C25.1175 18.3876 23.364 16.634 21.2085 16.634H13.2242C11.0687 16.634 9.31519 18.3876 9.31519 20.543V25.8659C9.31519 28.0214 11.0687 29.7749 13.2242 29.7749H21.2085C23.364 29.7749 25.1175 28.0214 25.1175 25.8659ZM11.8103 25.8659V24.452H13.2242C13.9132 24.452 14.4717 23.8935 14.4717 23.2045C14.4717 22.5155 13.9132 21.9569 13.2242 21.9569H11.8103V20.543C11.8103 19.7634 12.4445 19.1291 13.2242 19.1291H15.9688V27.2798H13.2242C12.4445 27.2798 11.8103 26.6456 11.8103 25.8659ZM21.2085 27.2798H18.4639V19.1291H21.2085C21.9882 19.1291 22.6224 19.7634 22.6224 20.543V21.9569H21.2085C20.5196 21.9569 19.961 22.5155 19.961 23.2045C19.961 23.8935 20.5196 24.452 21.2085 24.452H22.6224V25.8659C22.6224 26.6456 21.9882 27.2798 21.2085 27.2798Z" fill="#56423C"/>
<path d="M9.31519 41.8346C9.31519 42.5236 9.87376 43.0822 10.5627 43.0822C11.2517 43.0822 11.8103 42.5236 11.8103 41.8346V39.1732C11.8103 38.4842 11.2517 37.9256 10.5627 37.9256C9.87376 37.9256 9.31519 38.4842 9.31519 39.1732V41.8346Z" fill="#56423C"/>
<path d="M13.3071 39.1732V41.8346C13.3071 42.5236 13.8657 43.0822 14.5547 43.0822C15.2437 43.0822 15.8022 42.5236 15.8022 41.8346V39.1732C15.8022 38.4842 15.2437 37.9256 14.5547 37.9256C13.8657 37.9256 13.3071 38.4842 13.3071 39.1732Z" fill="#56423C"/>
<path d="M17.2993 39.1732V41.8346C17.2993 42.5236 17.8579 43.0822 18.5469 43.0822C19.2359 43.0822 19.7944 42.5236 19.7944 41.8346V39.1732C19.7944 38.4842 19.2359 37.9256 18.5469 37.9256C17.8579 37.9256 17.2993 38.4842 17.2993 39.1732Z" fill="#56423C"/>
<path d="M21.2915 39.1732V41.8346C21.2915 42.5236 21.8501 43.0822 22.5391 43.0822C23.228 43.0822 23.7866 42.5236 23.7866 41.8346V39.1732C23.7866 38.4842 23.228 37.9256 22.5391 37.9256C21.8501 37.9256 21.2915 38.4842 21.2915 39.1732Z" fill="#56423C"/>
<path d="M29.1096 41.8346V39.1732C29.1096 38.4842 28.551 37.9256 27.8621 37.9256C27.1731 37.9256 26.6145 38.4842 26.6145 39.1732V41.8346C26.6145 42.5236 27.1731 43.0822 27.8621 43.0822C28.551 43.0822 29.1096 42.5236 29.1096 41.8346Z" fill="#56423C"/>
<path d="M33.1018 41.8346V39.1732C33.1018 38.4842 32.5432 37.9256 31.8542 37.9256C31.1653 37.9256 30.6067 38.4842 30.6067 39.1732V41.8346C30.6067 42.5236 31.1653 43.0822 31.8542 43.0822C32.5432 43.0822 33.1018 42.5236 33.1018 41.8346Z" fill="#56423C"/>
<path d="M35.8464 37.9256C35.1574 37.9256 34.5989 38.4842 34.5989 39.1732V41.8346C34.5989 42.5236 35.1574 43.0822 35.8464 43.0822C36.5354 43.0822 37.094 42.5236 37.094 41.8346V39.1732C37.094 38.4842 36.5354 37.9256 35.8464 37.9256Z" fill="#56423C"/>
<path d="M41.0862 41.8346V39.1732C41.0862 38.4842 40.5276 37.9256 39.8386 37.9256C39.1496 37.9256 38.5911 38.4842 38.5911 39.1732V41.8346C38.5911 42.5236 39.1496 43.0822 39.8386 43.0822C40.5276 43.0822 41.0862 42.5236 41.0862 41.8346Z" fill="#56423C"/>
<path d="M69.1146 29.7749C72.7375 29.7749 75.6851 26.8274 75.6851 23.2045C75.6851 19.5816 72.7375 16.634 69.1146 16.634H61.1303C57.5074 16.634 54.5598 19.5816 54.5598 23.2045C54.5598 26.8274 57.5074 29.7749 61.1303 29.7749H69.1146ZM57.0549 23.2045C57.0549 20.9574 58.8832 19.1291 61.1303 19.1291H69.1146C71.3617 19.1291 73.19 20.9574 73.19 23.2045C73.19 25.4516 71.3617 27.2798 69.1146 27.2798H61.1303C58.8832 27.2798 57.0549 25.4516 57.0549 23.2045Z" fill="#56423C"/>
<path d="M78.8089 45.735C78.5253 45.5389 78.1731 45.469 77.8361 45.5414C76.7023 45.7859 75.5588 45.91 74.4371 45.91C68.8978 45.91 63.8203 43.0963 60.8551 38.3836C60.6267 38.0206 60.228 37.8004 59.7992 37.8004C59.3703 37.8004 58.9716 38.0206 58.7432 38.3836C55.7782 43.0963 50.7007 45.91 45.1614 45.91C44.0399 45.91 42.8963 45.7859 41.7624 45.5414C41.4257 45.4688 41.0732 45.5387 40.7896 45.735C40.506 45.9311 40.3162 46.236 40.2655 46.577C40.0372 48.1073 39.9216 49.6458 39.9216 51.1497C39.9216 64.2265 48.1139 76.4764 59.4011 80.2772C59.5302 80.3206 59.6648 80.3424 59.7993 80.3424C59.9339 80.3424 60.0683 80.3206 60.1975 80.2772C71.4847 76.4764 79.677 64.2265 79.677 51.1497C79.677 49.6458 79.5614 48.1073 79.3332 46.577C79.2823 46.2358 79.0925 45.9311 78.8089 45.735ZM47.4489 67.7064C44.2039 62.8075 42.4167 56.9275 42.4167 51.1497C42.4167 50.1848 42.4688 49.2037 42.5718 48.2194C43.4377 48.3429 44.3045 48.4051 45.1614 48.4051C50.2981 48.4051 55.0891 46.3119 58.5518 42.6733V77.2794C54.2336 75.4133 50.3372 72.0667 47.4489 67.7064ZM72.1498 67.7064C69.2614 72.0667 65.3652 75.4133 61.0469 77.2796V42.6733C64.5096 46.3119 69.3005 48.4051 74.4373 48.4051C75.2941 48.4051 76.1609 48.3427 77.0269 48.2194C77.1298 49.2037 77.1819 50.1848 77.1819 51.1497C77.1819 56.9275 75.3947 62.8075 72.1498 67.7064Z" fill="#56423C"/>
</svg>
